<svg id="svg" version="1.1" xmlns="http://www.w3.org/2000/svg" xmlns:xlink="http://www.w3.org/1999/xlink" width="400" height="304" viewBox="0, 0, 400,304"><g id="svgg"><path id="path0" d="M128.061 40.152 L 128.061 48.061 120.157 48.061 L 112.253 48.061 112.172 56.046 L 112.091 64.030 104.112 64.112 L 96.132 64.193 96.051 72.172 L 95.970 80.152 88.137 80.233 L 80.304 80.314 80.304 152.091 L 80.304 223.868 88.137 223.949 L 95.970 224.030 96.051 232.010 L 96.132 239.990 104.112 240.071 L 112.091 240.152 112.172 248.137 L 112.253 256.122 120.157 256.122 L 128.061 256.122 128.061 264.030 L 128.061 271.939 160.000 271.939 L 191.939 271.939 191.939 264.188 L 191.939 256.436 183.954 256.355 L 175.970 256.274 175.891 240.228 L 175.812 224.183 167.906 224.183 L 160.000 224.183 160.000 216.279 L 160.000 208.375 152.015 208.294 L 144.030 208.213 144.030 176.122 L 144.030 144.030 152.015 143.949 L 160.000 143.868 160.000 135.965 L 160.000 128.061 167.904 128.061 L 175.807 128.061 175.888 120.076 L 175.970 112.091 200.076 112.013 L 224.183 111.936 224.183 119.993 L 224.183 128.051 232.167 128.132 L 240.152 128.213 240.233 136.041 L 240.314 143.868 248.142 143.949 L 255.970 144.030 255.970 176.122 L 255.970 208.213 248.142 208.294 L 240.314 208.375 240.233 216.203 L 240.152 224.030 232.170 224.112 L 224.188 224.193 224.109 240.233 L 224.030 256.274 216.046 256.355 L 208.061 256.436 208.061 264.188 L 208.061 271.939 240.000 271.939 L 271.939 271.939 271.939 264.030 L 271.939 256.122 279.843 256.122 L 287.747 256.122 287.828 248.137 L 287.909 240.152 295.888 240.071 L 303.868 239.990 303.949 232.010 L 304.030 224.030 312.015 223.949 L 320.000 223.868 320.000 152.091 L 320.000 80.314 312.015 80.233 L 304.030 80.152 303.949 72.172 L 303.868 64.193 295.888 64.112 L 287.909 64.030 287.828 56.046 L 287.747 48.061 279.843 48.061 L 271.939 48.061 271.939 40.152 L 271.939 32.243 200.000 32.243 L 128.061 32.243 128.061 40.152 M160.304 200.152 L 160.304 208.061 168.061 208.061 L 175.817 208.061 175.817 200.152 L 175.817 192.243 168.061 192.243 L 160.304 192.243 160.304 200.152 M224.183 200.152 L 224.183 208.061 232.091 208.061 L 240.000 208.061 240.000 200.152 L 240.000 192.243 232.091 192.243 L 224.183 192.243 224.183 200.152 M176.122 216.122 L 176.122 223.878 200.000 223.878 L 223.878 223.878 223.878 216.122 L 223.878 208.365 200.000 208.365 L 176.122 208.365 176.122 216.122 " stroke="none" fill="#646464" fill-rule="evenodd"></path><path id="path1" d="M127.757 23.726 L 127.757 31.635 119.696 31.635 L 111.635 31.635 111.635 39.696 L 111.635 47.757 103.726 47.757 L 95.817 47.757 95.817 55.817 L 95.817 63.878 87.757 63.878 L 79.696 63.878 79.696 71.787 L 79.696 79.696 71.787 79.696 L 63.878 79.696 63.878 127.757 L 63.878 175.817 56.127 175.817 L 48.375 175.817 48.294 167.833 L 48.213 159.848 40.000 159.848 L 31.787 159.848 31.706 167.833 L 31.625 175.817 23.721 175.817 L 15.817 175.817 15.817 224.183 L 15.817 272.548 23.726 272.548 L 31.635 272.548 31.635 280.456 L 31.635 288.365 40.000 288.365 L 48.365 288.365 48.365 280.456 L 48.365 272.548 56.274 272.548 L 64.183 272.548 64.183 248.517 L 64.183 224.487 71.939 224.487 L 79.696 224.487 79.696 232.395 L 79.696 240.304 87.757 240.304 L 95.817 240.304 95.817 248.365 L 95.817 256.426 103.726 256.426 L 111.635 256.426 111.635 264.487 L 111.635 272.548 119.696 272.548 L 127.757 272.548 127.757 280.456 L 127.757 288.365 200.000 288.365 L 272.243 288.365 272.243 280.456 L 272.243 272.548 280.304 272.548 L 288.365 272.548 288.365 264.487 L 288.365 256.426 296.274 256.426 L 304.183 256.426 304.183 248.365 L 304.183 240.304 312.243 240.304 L 320.304 240.304 320.304 232.395 L 320.304 224.487 328.061 224.487 L 335.817 224.487 335.817 248.517 L 335.817 272.548 343.726 272.548 L 351.635 272.548 351.635 280.456 L 351.635 288.365 360.000 288.365 L 368.365 288.365 368.365 280.456 L 368.365 272.548 376.274 272.548 L 384.183 272.548 384.183 224.183 L 384.183 175.817 376.279 175.817 L 368.375 175.817 368.294 167.833 L 368.213 159.848 360.000 159.848 L 351.787 159.848 351.706 167.833 L 351.625 175.817 343.873 175.817 L 336.122 175.817 336.122 127.757 L 336.122 79.696 328.213 79.696 L 320.304 79.696 320.304 71.787 L 320.304 63.878 312.243 63.878 L 304.183 63.878 304.183 55.817 L 304.183 47.757 296.274 47.757 L 288.365 47.757 288.365 39.696 L 288.365 31.635 280.304 31.635 L 272.243 31.635 272.243 23.726 L 272.243 15.817 200.000 15.817 L 127.757 15.817 127.757 23.726 M272.010 39.924 L 272.091 47.909 280.071 47.990 L 288.051 48.071 288.132 56.051 L 288.213 64.030 296.198 64.112 L 304.183 64.193 304.183 72.096 L 304.183 80.000 312.091 80.000 L 320.000 80.000 320.000 152.091 L 320.000 224.183 312.096 224.183 L 304.193 224.183 304.112 232.167 L 304.030 240.152 296.046 240.233 L 288.061 240.314 288.061 248.213 L 288.061 256.112 280.076 256.193 L 272.091 256.274 272.010 264.259 L 271.929 272.243 239.995 272.243 L 208.061 272.243 208.061 264.183 L 208.061 256.122 215.970 256.122 L 223.878 256.122 223.878 240.152 L 223.878 224.183 200.000 224.183 L 176.122 224.183 176.122 240.152 L 176.122 256.122 184.030 256.122 L 191.939 256.122 191.939 264.183 L 191.939 272.243 160.005 272.243 L 128.071 272.243 127.990 264.259 L 127.909 256.274 119.924 256.193 L 111.939 256.112 111.939 248.208 L 111.939 240.304 104.035 240.304 L 96.132 240.304 96.051 232.319 L 95.970 224.335 87.985 224.254 L 80.000 224.172 80.000 152.091 L 80.000 80.010 87.985 79.929 L 95.970 79.848 96.051 72.020 L 96.132 64.193 103.959 64.112 L 111.787 64.030 111.868 56.051 L 111.949 48.071 119.929 47.990 L 127.909 47.909 127.990 39.924 L 128.071 31.939 200.000 31.939 L 271.929 31.939 272.010 39.924 M176.122 120.152 L 176.122 128.061 168.061 128.061 L 160.000 128.061 160.000 136.122 L 160.000 144.183 152.091 144.183 L 144.183 144.183 144.183 176.122 L 144.183 208.061 152.091 208.061 L 160.000 208.061 160.000 216.127 L 160.000 224.193 167.985 224.112 L 175.970 224.030 175.970 216.122 L 175.970 208.213 167.985 208.132 L 160.000 208.051 160.000 200.147 L 160.000 192.243 168.061 192.243 L 176.122 192.243 176.122 200.152 L 176.122 208.061 200.000 208.061 L 223.878 208.061 223.878 200.152 L 223.878 192.243 231.939 192.243 L 240.000 192.243 240.000 200.152 L 240.000 208.061 232.091 208.061 L 224.183 208.061 224.183 216.122 L 224.183 224.183 232.091 224.183 L 240.000 224.183 240.000 216.127 L 240.000 208.071 247.985 207.990 L 255.970 207.909 255.970 176.122 L 255.970 144.335 247.985 144.254 L 240.000 144.172 240.000 136.122 L 240.000 128.071 232.015 127.990 L 224.030 127.909 223.949 120.076 L 223.868 112.243 199.995 112.243 L 176.122 112.243 176.122 120.152 " stroke="none" fill="#2c2c2c" fill-rule="evenodd"></path><path id="path2" d="M164.055 32.167 C 183.935 32.210,216.376 32.210,236.146 32.167 C 255.916 32.124,239.650 32.089,200.000 32.089 C 160.350 32.089,144.174 32.124,164.055 32.167 M111.939 56.031 C 111.855 60.498,111.892 64.048,112.020 63.919 C 112.149 63.791,112.217 60.136,112.172 55.797 L 112.091 47.909 111.939 56.031 M287.820 55.876 C 287.785 60.257,287.859 63.906,287.985 63.984 C 288.110 64.062,288.178 61.709,288.135 58.755 C 287.991 48.837,287.883 47.853,287.820 55.876 M304.023 72.091 L 304.030 80.152 311.939 80.160 L 319.848 80.167 312.020 80.079 L 304.193 79.990 304.104 72.010 L 304.015 64.030 304.023 72.091 M87.985 79.924 L 80.000 80.010 80.000 152.087 L 80.000 224.163 88.032 224.249 C 92.450 224.296,96.001 224.232,95.923 224.106 C 95.845 223.981,92.299 223.878,88.043 223.878 L 80.304 223.878 80.304 152.091 L 80.304 80.304 88.043 80.304 C 92.874 80.304,95.852 80.190,95.970 80.000 C 96.073 79.833,96.115 79.728,96.064 79.767 C 96.012 79.806,92.376 79.876,87.985 79.924 M175.955 112.325 C 175.873 112.537,175.846 116.198,175.894 120.462 L 175.981 128.213 176.051 120.228 L 176.122 112.243 199.995 112.243 L 223.868 112.243 223.955 120.076 L 224.041 127.909 224.112 119.924 L 224.183 111.939 200.143 111.939 C 181.017 111.939,176.072 112.018,175.955 112.325 M240.071 136.188 L 240.000 144.163 248.032 144.249 C 252.450 144.296,256.001 144.232,255.923 144.106 C 255.845 143.981,252.301 143.878,248.048 143.878 L 240.314 143.878 240.228 136.046 L 240.141 128.213 240.071 136.188 M144.019 144.259 C 143.939 144.468,143.909 158.943,143.952 176.426 L 144.030 208.213 152.091 208.213 L 160.152 208.213 160.160 200.228 L 160.168 192.243 160.079 200.152 L 159.990 208.061 152.086 208.061 L 144.183 208.061 144.183 176.127 L 144.183 144.193 152.167 144.106 L 160.152 144.020 152.158 143.949 C 145.989 143.894,144.130 143.965,144.019 144.259 M175.888 200.228 L 175.817 208.365 199.848 208.365 L 223.878 208.365 223.878 216.122 L 223.878 223.878 199.845 223.878 L 175.812 223.878 175.891 240.076 L 175.970 256.274 183.955 256.281 L 191.939 256.289 184.031 256.200 L 176.122 256.112 176.122 240.147 L 176.122 224.183 200.000 224.183 L 223.878 224.183 223.878 240.147 L 223.878 256.112 216.046 256.200 L 208.213 256.289 216.122 256.281 L 224.030 256.274 224.036 224.183 C 224.040 206.532,224.003 195.684,223.955 200.076 L 223.868 208.061 200.000 208.061 L 176.132 208.061 176.045 200.076 L 175.959 192.091 175.888 200.228 M247.985 207.985 L 240.000 208.071 240.071 216.051 L 240.141 224.030 240.228 216.198 L 240.314 208.365 248.048 208.365 C 252.876 208.365,255.852 208.251,255.970 208.061 C 256.073 207.894,256.115 207.789,256.064 207.827 C 256.012 207.866,252.376 207.937,247.985 207.985 M304.081 224.081 C 303.970 224.193,303.878 227.818,303.878 232.137 L 303.878 239.990 295.894 240.071 L 287.909 240.152 287.901 248.061 L 287.894 255.970 287.982 248.142 L 288.071 240.314 296.051 240.233 L 304.030 240.152 304.112 232.172 L 304.193 224.193 312.172 224.106 L 320.152 224.020 312.218 223.949 C 307.854 223.910,304.193 223.970,304.081 224.081 M103.949 240.225 L 111.929 240.314 112.018 248.142 L 112.106 255.970 112.099 248.061 L 112.091 240.152 104.030 240.144 L 95.970 240.136 103.949 240.225 M143.954 272.167 C 152.779 272.212,167.221 272.212,176.046 272.167 C 184.871 272.122,177.650 272.086,160.000 272.086 C 142.350 272.086,135.129 272.122,143.954 272.167 M223.954 272.167 C 232.779 272.212,247.221 272.212,256.046 272.167 C 264.871 272.122,257.650 272.086,240.000 272.086 C 222.350 272.086,215.129 272.122,223.954 272.167 " stroke="none" fill="#546848" fill-rule="evenodd"></path><path id="path3" d="M164.055 32.167 C 183.935 32.210,216.376 32.210,236.146 32.167 C 255.916 32.124,239.650 32.089,200.000 32.089 C 160.350 32.089,144.174 32.124,164.055 32.167 M111.939 56.031 C 111.855 60.498,111.892 64.048,112.020 63.919 C 112.149 63.791,112.217 60.136,112.172 55.797 L 112.091 47.909 111.939 56.031 M287.820 55.876 C 287.785 60.257,287.859 63.906,287.985 63.984 C 288.110 64.062,288.178 61.709,288.135 58.755 C 287.991 48.837,287.883 47.853,287.820 55.876 M304.023 72.091 L 304.030 80.152 311.939 80.160 L 319.848 80.167 312.020 80.079 L 304.193 79.990 304.104 72.010 L 304.015 64.030 304.023 72.091 M87.985 79.924 L 80.000 80.010 80.000 152.087 L 80.000 224.163 88.032 224.249 C 92.450 224.296,96.001 224.232,95.923 224.106 C 95.845 223.981,92.299 223.878,88.043 223.878 L 80.304 223.878 80.304 152.091 L 80.304 80.304 88.043 80.304 C 92.874 80.304,95.852 80.190,95.970 80.000 C 96.073 79.833,96.115 79.728,96.064 79.767 C 96.012 79.806,92.376 79.876,87.985 79.924 M175.955 112.325 C 175.873 112.537,175.846 116.198,175.894 120.462 L 175.981 128.213 176.051 120.228 L 176.122 112.243 199.995 112.243 L 223.868 112.243 223.955 120.076 L 224.041 127.909 224.112 119.924 L 224.183 111.939 200.143 111.939 C 181.017 111.939,176.072 112.018,175.955 112.325 M240.071 136.188 L 240.000 144.163 248.032 144.249 C 252.450 144.296,256.001 144.232,255.923 144.106 C 255.845 143.981,252.301 143.878,248.048 143.878 L 240.314 143.878 240.228 136.046 L 240.141 128.213 240.071 136.188 M144.019 144.259 C 143.939 144.468,143.909 158.943,143.952 176.426 L 144.030 208.213 152.091 208.213 L 160.152 208.213 160.160 200.228 L 160.168 192.243 160.079 200.152 L 159.990 208.061 152.086 208.061 L 144.183 208.061 144.183 176.127 L 144.183 144.193 152.167 144.106 L 160.152 144.020 152.158 143.949 C 145.989 143.894,144.130 143.965,144.019 144.259 M175.888 200.228 L 175.817 208.365 199.848 208.365 L 223.878 208.365 223.878 216.122 L 223.878 223.878 199.845 223.878 L 175.812 223.878 175.891 240.076 L 175.970 256.274 183.955 256.281 L 191.939 256.289 184.031 256.200 L 176.122 256.112 176.122 240.147 L 176.122 224.183 200.000 224.183 L 223.878 224.183 223.878 240.147 L 223.878 256.112 216.046 256.200 L 208.213 256.289 216.122 256.281 L 224.030 256.274 224.036 224.183 C 224.040 206.532,224.003 195.684,223.955 200.076 L 223.868 208.061 200.000 208.061 L 176.132 208.061 176.045 200.076 L 175.959 192.091 175.888 200.228 M247.985 207.985 L 240.000 208.071 240.071 216.051 L 240.141 224.030 240.228 216.198 L 240.314 208.365 248.048 208.365 C 252.876 208.365,255.852 208.251,255.970 208.061 C 256.073 207.894,256.115 207.789,256.064 207.827 C 256.012 207.866,252.376 207.937,247.985 207.985 M304.081 224.081 C 303.970 224.193,303.878 227.818,303.878 232.137 L 303.878 239.990 295.894 240.071 L 287.909 240.152 287.901 248.061 L 287.894 255.970 287.982 248.142 L 288.071 240.314 296.051 240.233 L 304.030 240.152 304.112 232.172 L 304.193 224.193 312.172 224.106 L 320.152 224.020 312.218 223.949 C 307.854 223.910,304.193 223.970,304.081 224.081 M103.949 240.225 L 111.929 240.314 112.018 248.142 L 112.106 255.970 112.099 248.061 L 112.091 240.152 104.030 240.144 L 95.970 240.136 103.949 240.225 M143.954 272.167 C 152.779 272.212,167.221 272.212,176.046 272.167 C 184.871 272.122,177.650 272.086,160.000 272.086 C 142.350 272.086,135.129 272.122,143.954 272.167 M223.954 272.167 C 232.779 272.212,247.221 272.212,256.046 272.167 C 264.871 272.122,257.650 272.086,240.000 272.086 C 222.350 272.086,215.129 272.122,223.954 272.167 " stroke="none" fill="#546848" fill-rule="evenodd"></path><path id="path4" d="M164.055 32.167 C 183.935 32.210,216.376 32.210,236.146 32.167 C 255.916 32.124,239.650 32.089,200.000 32.089 C 160.350 32.089,144.174 32.124,164.055 32.167 M111.939 56.031 C 111.855 60.498,111.892 64.048,112.020 63.919 C 112.149 63.791,112.217 60.136,112.172 55.797 L 112.091 47.909 111.939 56.031 M287.820 55.876 C 287.785 60.257,287.859 63.906,287.985 63.984 C 288.110 64.062,288.178 61.709,288.135 58.755 C 287.991 48.837,287.883 47.853,287.820 55.876 M304.023 72.091 L 304.030 80.152 311.939 80.160 L 319.848 80.167 312.020 80.079 L 304.193 79.990 304.104 72.010 L 304.015 64.030 304.023 72.091 M87.985 79.924 L 80.000 80.010 80.000 152.087 L 80.000 224.163 88.032 224.249 C 92.450 224.296,96.001 224.232,95.923 224.106 C 95.845 223.981,92.299 223.878,88.043 223.878 L 80.304 223.878 80.304 152.091 L 80.304 80.304 88.043 80.304 C 92.874 80.304,95.852 80.190,95.970 80.000 C 96.073 79.833,96.115 79.728,96.064 79.767 C 96.012 79.806,92.376 79.876,87.985 79.924 M175.955 112.325 C 175.873 112.537,175.846 116.198,175.894 120.462 L 175.981 128.213 176.051 120.228 L 176.122 112.243 199.995 112.243 L 223.868 112.243 223.955 120.076 L 224.041 127.909 224.112 119.924 L 224.183 111.939 200.143 111.939 C 181.017 111.939,176.072 112.018,175.955 112.325 M240.071 136.188 L 240.000 144.163 248.032 144.249 C 252.450 144.296,256.001 144.232,255.923 144.106 C 255.845 143.981,252.301 143.878,248.048 143.878 L 240.314 143.878 240.228 136.046 L 240.141 128.213 240.071 136.188 M144.019 144.259 C 143.939 144.468,143.909 158.943,143.952 176.426 L 144.030 208.213 152.091 208.213 L 160.152 208.213 160.160 200.228 L 160.168 192.243 160.079 200.152 L 159.990 208.061 152.086 208.061 L 144.183 208.061 144.183 176.127 L 144.183 144.193 152.167 144.106 L 160.152 144.020 152.158 143.949 C 145.989 143.894,144.130 143.965,144.019 144.259 M175.888 200.228 L 175.817 208.365 199.848 208.365 L 223.878 208.365 223.878 216.122 L 223.878 223.878 199.845 223.878 L 175.812 223.878 175.891 240.076 L 175.970 256.274 183.955 256.281 L 191.939 256.289 184.031 256.200 L 176.122 256.112 176.122 240.147 L 176.122 224.183 200.000 224.183 L 223.878 224.183 223.878 240.147 L 223.878 256.112 216.046 256.200 L 208.213 256.289 216.122 256.281 L 224.030 256.274 224.036 224.183 C 224.040 206.532,224.003 195.684,223.955 200.076 L 223.868 208.061 200.000 208.061 L 176.132 208.061 176.045 200.076 L 175.959 192.091 175.888 200.228 M247.985 207.985 L 240.000 208.071 240.071 216.051 L 240.141 224.030 240.228 216.198 L 240.314 208.365 248.048 208.365 C 252.876 208.365,255.852 208.251,255.970 208.061 C 256.073 207.894,256.115 207.789,256.064 207.827 C 256.012 207.866,252.376 207.937,247.985 207.985 M304.081 224.081 C 303.970 224.193,303.878 227.818,303.878 232.137 L 303.878 239.990 295.894 240.071 L 287.909 240.152 287.901 248.061 L 287.894 255.970 287.982 248.142 L 288.071 240.314 296.051 240.233 L 304.030 240.152 304.112 232.172 L 304.193 224.193 312.172 224.106 L 320.152 224.020 312.218 223.949 C 307.854 223.910,304.193 223.970,304.081 224.081 M103.949 240.225 L 111.929 240.314 112.018 248.142 L 112.106 255.970 112.099 248.061 L 112.091 240.152 104.030 240.144 L 95.970 240.136 103.949 240.225 M143.954 272.167 C 152.779 272.212,167.221 272.212,176.046 272.167 C 184.871 272.122,177.650 272.086,160.000 272.086 C 142.350 272.086,135.129 272.122,143.954 272.167 M223.954 272.167 C 232.779 272.212,247.221 272.212,256.046 272.167 C 264.871 272.122,257.650 272.086,240.000 272.086 C 222.350 272.086,215.129 272.122,223.954 272.167 " stroke="none" fill="#546848" fill-rule="evenodd"></path></g></svg>